<?xml version="1.0" encoding="utf-8"?>
<!-- Generator: Adobe Illustrator 26.0.1, SVG Export Plug-In . SVG Version: 6.00 Build 0)  -->
<svg version="1.1" id="Capa_1" xmlns="http://www.w3.org/2000/svg" xmlns:xlink="http://www.w3.org/1999/xlink" x="0px" y="0px"
	 viewBox="0 0 1042 275.3" style="enable-background:new 0 0 1042 275.3;" xml:space="preserve">
<style type="text/css">
	.st0{fill:#FFFFFF;}
	.st1{enable-background:new    ;}
	.st2{fill:#1D1D1B;stroke:#000000;stroke-width:4;stroke-miterlimit:10;}
	.st3{fill:#1D1D1B;}
	.st4{fill:none;stroke:#1D1D1B;stroke-miterlimit:10;}
</style>
<path class="st0" d="M760.6-74.2c0,0,0,0.1,0,0.2c0,0,0-0.1-0.2-0.2h0.1H760.6z"/>
<g>
	<g>
		<g>
			<g class="st1">
				<path class="st2" d="M141.1,182.6c7,3.8,15.6,5.6,25.9,5.6c7.5,0,12.8-1.6,15.8-4.5c3.1-3,5.5-8.3,7-15.6l1.4-6.9
					c-6.1,6.1-13.8,9.1-23,9.1c-14.5,0-23.3-9.5-23.3-26.3c0-9.5,1.7-18.9,5.3-28.1s8.9-16.3,16.3-21.4c6.7-4.7,14.8-7,24.5-7
					c7,0,14.7,2.5,17.7,6.3l0.9-4.1H238l-17.2,74.6c-3.8,15.9-10.5,26.7-20.3,32.5c-8.4,4.8-19.7,7.3-33.6,7.3c-5.6,0-11.3-0.6-17-2
					c-5.8-1.4-9.7-3.3-12-5.5L141.1,182.6z M204.8,103.1c-1.1-1.4-3.3-2.2-6.6-2.2c-5,0-8.9,1.7-11.9,5.3c-3.1,3.8-5.6,9.1-7.5,16.1
					c-2,7-3,13.3-3,18.9c0,8.3,3,12.3,8.9,12.3c3.1,0,5.9-0.3,8.4-1.1L204.8,103.1z"/>
				<path class="st2" d="M323,137.4c-2.3,7.7-5.3,13.8-9.1,18.1c-8.1,9.4-21.6,15-35.8,15c-22.7,0-37.4-9.4-37.4-30.8
					c0-13.6,3.8-25.5,11.3-35.5c8.4-11.3,21.4-16.9,39.1-16.9c17.2,0,35.3,6.4,35.3,29.4C326.4,122.9,325.3,129.8,323,137.4z
					 M290.2,99.3c-5.3,0-9.4,3.4-12.2,10.2c-2.3,5.6-4.2,12.3-5.9,20.2c-1.7,7.8-2.5,14.4-2.5,19.7c0,4.5,2.3,8.6,8,8.6
					c5.5,0,9.5-3.6,11.9-10.8c2-5.8,3.8-12.5,5.5-20.5c1.7-8,2.5-14.1,2.5-18.3C297.4,102.3,295,99.3,290.2,99.3z"/>
				<path class="st2" d="M342.4,127c5.8-3.3,15.9-5,30.5-5c2,0,3.9,0.2,5.8,0.3l0.9-4.2c0.5-2.3,0.6-4.1,0.6-5.5
					c0-2.3-0.5-4.2-1.6-5.6c-1.6-2.3-5.2-3.4-10.8-3.4c-8.3,0-15.6,1.4-22.4,4.4l3.4-13.3c8.6-4.8,18.4-7.2,29.7-7.2
					c12.7,0,21.6,2.7,26.6,7.8c3.3,3.6,5,8.1,5,13.8c0,3.6-0.9,9.5-2.7,17.8l-9.4,41.7h-28l1.4-8.4c-6.1,6.9-11.6,10.2-20.9,10.2
					c-13,0-20.6-7.8-20.6-19.1C330,139.8,334.1,131.7,342.4,127z M364.1,155.6c3.1,0,5.6-0.6,7.3-1.9l4.7-20.6
					c-0.8-0.2-2-0.2-4.1-0.2c-4.5,0-8,1.1-10.2,3.4c-2.8,3.1-4.2,7-4.2,11.9C357.7,152.8,360.5,155.6,364.1,155.6z"/>
				<path class="st2" d="M463,166.8c-5.8,2.3-12.7,3.4-20.6,3.4c-11.4,0-19.5-6.4-19.5-17.8c0-3.9,0.5-8.1,1.6-12.7l7.8-34.7h-9.4
					l3.9-15.5h9.5l6.7-23.4h28.4L466,89.6h12.8l-3.9,15.5h-12.8l-7.7,34.1c-0.8,3.8-1.3,6.7-1.3,8.9c0,4.7,2,7,6.3,7
					c2.3,0,4.5-0.5,6.6-1.2L463,166.8z"/>
				<path class="st2" d="M505.4,132.6c-0.5,2.7-0.6,5.3-0.6,8.3c0.2,10,6.6,14.7,16.6,14.7c7.7,0,15-1.4,21.9-4.2l-3.3,12.5
					c-7.2,4.4-17.7,6.6-31.4,6.6c-22.4,0-33.8-11.3-33.8-29.4c0-16.7,5.3-30.6,15.9-41.6c8-8,19.1-12,33.3-12
					c19.5,0,29.2,8.3,29.2,24.9c0,5.6-1.1,12.3-3.4,20.3H505.4z M526.5,119c1.7-6.4,2.5-10.9,2.5-13.8c0-4.1-2-6.1-6.1-6.1
					c-6.4,0-11.3,6.6-14.7,19.8H526.5z"/>
				<path class="st2" d="M603.4,168.5l2-9.5c-6.4,7.5-14.7,11.3-24.9,11.3c-14.5,0-23.3-9.5-23.3-26.3c0-9.5,1.9-18.9,5.5-28.1
					c3.6-9.1,8.9-16.3,16.1-21.4c6.7-4.8,15.3-7.3,25.8-7.3c5,0,12.7,1.7,15,3.6l9.1-38.8h30.2L632,168.5H603.4z M617.2,102.3
					c-1.9-0.9-4.1-1.4-6.6-1.4c-5,0-8.9,1.7-11.9,5.3c-3.1,3.8-5.6,9.1-7.5,16.1c-2,7-3,13.3-3,18.9c0,8.3,3,12.3,8.9,12.3
					c3,0,5.8-0.5,8.4-1.4L617.2,102.3z"/>
				<path class="st2" d="M679.4,168.5h-30l26.9-116.6h30L679.4,168.5z"/>
				<path class="st2" d="M726.7,168.5h-30l18.1-78.9h30L726.7,168.5z M732.5,79.1c-8,0-12.8-4.8-12.8-12.8c0-9.2,6.6-16.7,16.6-16.7
					c8.1,0,13,4.5,13,12.5C749.2,72,743,79.1,732.5,79.1z"/>
				<path class="st2" d="M774.1,168.5h-30l18.1-78.9h29.4l-2.5,10.6c7-8.4,15.6-12.7,25.8-12.7c10.8,0,19.1,4.7,19.2,15.9
					c0,4.8-0.9,10.9-2.7,18.6l-10.8,46.4h-30.2l10.8-46.9c1.1-5.2,1.7-8.9,1.7-11.6c0-4.2-2-6.4-6.3-6.4c-3.1,0-6.1,1.2-8.9,3.9
					L774.1,168.5z"/>
				<path class="st2" d="M868,168.5h-30l26.9-116.6h30l-16.7,71.9c4.2-5.3,14.2-16.7,29.7-34.2h24.7l-30.3,30.5l20.6,48.5h-31.4
					L877.1,129L868,168.5z"/>
			</g>
		</g>
	</g>
</g>
<path class="st3" d="M822.5,182.7c-0.2,0.2-0.3,0.3-0.4,0.3c-5.4,0.7-10.8,1.3-16.2,2c-4.8,0.5-9.5,1-14.3,1.6
	c-4.6,0.5-9.2,1.2-13.9,1.7c-4.8,0.5-9.5,1-14.3,1.6c-4.5,0.5-9,1.1-13.5,1.6c-2.4,0.3-4.8,0.5-7.2,0.8c-5.3,0.6-10.6,1.3-15.8,1.8
	c-4.6,0.5-9.3,1-13.9,1.5c-4.8,0.5-9.5,1.2-14.3,1.7c-4.6,0.5-9.3,1-13.9,1.5c-4.8,0.5-9.5,1.1-14.3,1.7c-2.3,0.3-4.5,0.5-6.7,0.8
	c-5.4,0.6-10.8,1.3-16.3,1.9c-4.6,0.5-9.3,1-13.9,1.5s-9.2,1.1-13.9,1.7c-2.4,0.3-4.8,0.5-7.2,0.8c-5.3,0.6-10.6,1.3-15.8,1.8
	c-4.6,0.5-9.3,1-13.9,1.5c-4.6,0.5-9.2,1.1-13.9,1.7c-2.4,0.3-4.8,0.6-7.2,0.8c-6.5,0.7-13,1.4-19.4,2.2c-6.5,0.8-12.9,1.6-19.4,2.4
	c-4.6,0.5-9.3,1-13.9,1.5s-9.2,1.1-13.9,1.7c-2.5,0.3-5,0.5-7.5,0.9c-5,0.6-10,1.2-15.1,1.8c-2.8,0.3-5.6,0.6-8.4,0.9
	c-2.3,0.2-4.5,0.5-6.7,0.8c-5.6,0.7-11.1,1.3-16.6,2c-6.5,0.8-13,1.6-19.4,2.3c-4.8,0.5-9.5,1-14.3,1.6c-4.6,0.5-9.2,1.1-13.9,1.7
	c-2.3,0.3-4.5,0.5-6.7,0.8c-5.4,0.6-10.8,1.3-16.3,1.9c-4.6,0.5-9.3,1-13.9,1.5s-9.2,1.1-13.9,1.7c-2.8,0.3-5.6,0.6-8.4,0.9
	c-0.5,0-1.1,0-1.6,0.2c-2.5,0.6-5,0.4-7.5-0.1c-9.1-1.7-18.2-3.3-27.4-5c-10.4-1.9-20.9-3.8-31.3-5.7c-10.3-1.9-20.6-3.8-30.9-5.6
	c-1.8-0.3-3.6-0.7-5.5-1c-0.3,0-0.4-0.3-0.3-0.5c0,0,0.2-0.1,0.3-0.2c0.1,0,0.3,0,0.4-0.1c4.7-0.3,9.3-0.5,14-0.9
	c4.8-0.3,9.6-0.7,14.4-1h0.8c4.8-0.3,9.6-0.5,14.4-0.8c1.2,0,2.4-0.2,3.6-0.2c1.6-0.1,3.2-0.2,4.8-0.3c2.1-0.1,4.3-0.3,6.4-0.4
	c1,0,2.1-0.1,3.2-0.2c2.4-0.2,4.8-0.3,7.2-0.5c0.8,0,1.6-0.1,2.4-0.1c2.7-0.1,5.4-0.2,8-0.5c1-0.1,2.1-0.1,3.2-0.2
	c2-0.1,4-0.3,6-0.4c0.4,0,0.8,0,1.2-0.1c4.9-0.3,9.9-0.5,14.8-0.9c4.8-0.3,9.6-0.7,14.4-1c1,0,2.1-0.1,3.2-0.2
	c2.4-0.2,4.8-0.3,7.2-0.5h0.8c4.8-0.3,9.6-0.5,14.4-0.9c1.3,0,2.7-0.2,4-0.3c1.5-0.1,2.9-0.2,4.4-0.3c2.1-0.1,4.3-0.3,6.4-0.4h0.8
	c4.8-0.3,9.6-0.5,14.4-0.9c1.5-0.1,2.9-0.2,4.4-0.3c0.4,0,0.8-0.1,1.2-0.1c4.7-0.3,9.3-0.5,14-0.8c1.7-0.1,3.5-0.2,5.2-0.4
	c0.4,0,0.8-0.1,1.2-0.1c4.8-0.3,9.6-0.5,14.4-0.9c4.9-0.3,9.9-0.7,14.8-1c0.9,0,1.9-0.1,2.8-0.2c2.7-0.1,5.4-0.2,8-0.5
	c1.2-0.2,2.4-0.1,3.6-0.2c1.9-0.1,3.7-0.3,5.6-0.4c0.4,0,0.8-0.1,1.2-0.1c4.8-0.3,9.6-0.5,14.4-0.9c1.3,0,2.7-0.2,4-0.3
	c0.5,0,1-0.1,1.6-0.2c4.8-0.3,9.6-0.5,14.4-0.9c1.5-0.1,2.9-0.2,4.4-0.3c0.5,0,1-0.1,1.6-0.2c4.8-0.3,9.6-0.5,14.4-0.9
	c4.9-0.3,9.9-0.7,14.8-1c1.1,0,2.1-0.1,3.2-0.2c2.4-0.2,4.8-0.3,7.2-0.5c0.9,0,1.9-0.1,2.8-0.2c2.4-0.2,4.8-0.3,7.2-0.5h0.8
	c4.8-0.3,9.6-0.5,14.4-0.9c4.9-0.3,9.9-0.7,14.8-1c0.9,0,1.9-0.1,2.8-0.2c2.6-0.1,5.1-0.2,7.6-0.5c0.9-0.1,1.9-0.1,2.8-0.2
	c2.4-0.2,4.8-0.3,7.2-0.5h0.8c4.8-0.3,9.6-0.5,14.4-0.9c1.3,0,2.7-0.2,4-0.3s2.7-0.2,4-0.3c2.3-0.2,4.5-0.3,6.8-0.5
	c1.1,0,2.1-0.1,3.2-0.2c2.4-0.2,4.8-0.3,7.2-0.5c0.9,0,1.9-0.1,2.8-0.2c2.4-0.2,4.8-0.3,7.2-0.5c0.8,0,1.6-0.1,2.4-0.1
	c2.7-0.1,5.4-0.2,8-0.5c1.2-0.1,2.4-0.1,3.6-0.2c1.9-0.1,3.7-0.3,5.6-0.4c0.4,0,0.8-0.1,1.2-0.1c4.8-0.3,9.6-0.5,14.4-0.9
	c1.3,0,2.7-0.2,4-0.3s2.7-0.2,4-0.3c2.4-0.2,4.8-0.3,7.2-0.5c0.9,0,1.9-0.1,2.8-0.2c2.4-0.2,4.8-0.3,7.2-0.5h0.8
	c4.8-0.3,9.6-0.5,14.4-0.9c1.3,0,2.7-0.2,4-0.3c1.5-0.1,2.9-0.2,4.4-0.3c2.1-0.1,4.3-0.3,6.4-0.4h0.8c4.8-0.3,9.6-0.5,14.4-0.9
	c1.5-0.1,2.9-0.2,4.4-0.3s2.9-0.2,4.4-0.3c2.3-0.1,4.5-0.2,6.8-0.6c1.5-0.3,3.2-0.2,4.8-0.3c0.5,0,1,0,2.1-0.1
	c-1.8-0.4-3-0.3-4.1-0.3s-2.7,0-4,0.2c-2,0.2-4,0.3-6,0.3c-2.9,0-5.9,0-8.8,0.4c-0.4,0-0.8,0-1.2,0.1c-6.8,0.3-13.6,0.5-20.4,0.8
	c-2.1,0.1-4.3,0.2-6.4,0.3c-0.5,0-1,0.1-1.6,0.1c-6.8,0.3-13.6,0.5-20.4,0.9c-2.1,0.1-4.3,0.2-6.4,0.3c-0.5,0-1,0.1-1.6,0.1
	c-6.8,0.3-13.6,0.5-20.4,0.9c-2.3,0.1-4.5,0.2-6.8,0.4c-0.4,0-0.8,0-1.2,0.1c-6.5,0.3-13.1,0.5-19.6,0.8c-2.7,0.1-5.4,0.3-8,0.4
	h-0.8c-6.5,0.3-13.1,0.5-19.6,0.9c-2.7,0.1-5.4,0.3-8,0.4c-0.4,0-0.8,0-1.2,0.1c-6.7,0.3-13.3,0.5-20,0.8c-2.4,0.1-4.8,0.2-7.2,0.4
	c-1.3,0-2.7,0.2-4,0.2c-3.9,0.1-7.7,0.3-11.6,0.5c-6.6,0.4-13.3,0.6-20,0.9c-2.4,0.1-4.8,0.2-7.2,0.4c-0.4,0-0.8,0-1.2,0.1
	c-6.7,0.3-13.3,0.5-20,0.8c-2.4,0.1-4.8,0.2-7.2,0.4c-0.4,0-0.8,0-1.2,0.1c-6.5,0.3-13.1,0.5-19.6,0.9c-2.7,0.1-5.4,0.3-8,0.4
	c-0.4,0-0.8,0-1.2,0.1c-6.7,0.3-13.3,0.5-20,0.8c-2.4,0.1-4.8,0.2-7.2,0.4c-0.4,0-0.8,0-1.2,0.1c-6.7,0.3-13.3,0.5-20,0.9
	c-2.4,0.1-4.8,0.2-7.2,0.4c-0.4,0-0.8,0-1.2,0.1c-6.5,0.3-13.1,0.5-19.6,0.8c-2.7,0.1-5.4,0.3-8,0.4c-0.4,0-0.8,0-1.2,0.1
	c-6.7,0.3-13.3,0.5-20,0.8c-2.4,0.1-4.8,0.2-7.2,0.4c-0.4,0-0.8,0-1.2,0.1c-6.7,0.3-13.3,0.5-20,0.9c-2.4,0.1-4.8,0.2-7.2,0.4
	c-0.4,0-0.8,0-1.2,0.1c-6.5,0.3-13.1,0.5-19.6,0.8c-2.7,0.1-5.4,0.3-8,0.4h-0.8c-6.5,0.3-13.1,0.5-19.6,0.9c-2.7,0.1-5.4,0.3-8,0.4
	c-0.4,0-0.8,0-1.2,0.1c-6.8,0.3-13.6,0.5-20.4,0.9c-2.3,0.1-4.5,0.2-6.8,0.4c-1.2,0-2.4,0.2-3.6,0.2c-4,0.1-8,0.3-12,0.5
	c-6.6,0.4-13.3,0.6-20,0.9c-2.4,0.1-4.8,0.3-7.2,0.4c-2,0-4,0.1-6,0.2c0,0-0.3-0.1-0.3-0.2c0-0.2,0.1-0.4,0.3-0.5
	c1-0.5,2.1-0.9,3.2-1.4c19.6-7.8,39.1-15.7,58.7-23.5c3.2-1.3,6.5-1.9,10-1.9H820c1,0,2.1,0,3.2,0.2H823L822.5,182.7L822.5,182.7
	L822.5,182.7z"/>
<g>
	<g>
		<g>
			<g class="st1">
				<path class="st3" d="M911.2,74.2h-5.9l4.7-20.4h7.5c2,0,3.5,0.2,4.7,0.5c1.9,0.6,2.8,2,2.8,4c0,3.1-1.5,5.9-4.3,6.9l2.7,8.9h-6
					l-2-8.1H913L911.2,74.2z M913.6,63.6h1.7c0.9,0,1.6-0.2,2.2-0.5c0.5-0.4,1-1,1.2-1.9c0.3-0.9,0.4-1.7,0.4-2.5
					c0-0.8-0.2-1.3-0.6-1.7c-0.4-0.3-1-0.5-1.9-0.5h-1.4L913.6,63.6z"/>
			</g>
		</g>
	</g>
	<circle class="st4" cx="914.8" cy="64.5" r="14.8"/>
</g>
</svg>
